<svg width="22" height="22" fill="none" xmlns="http://www.w3.org/2000/svg"><g clip-path="url(#a)" fill="#637381"><path d="M19.214 5.547c-.046.905-.907 1.245-1.575.632a51.314 51.314 0 0 1-1.1-1.043 591.42 591.42 0 0 0-4.3 3.954 1.157 1.157 0 0 1-1.66-.106 105.639 105.639 0 0 0-2.482-2.887 40.644 40.644 0 0 0-4.536 3.88 1.146 1.146 0 1 1-1.62-1.62C3.671 6.625 5.572 5 7.61 3.633l.003-.002a1.146 1.146 0 0 1 1.447.143c.887.887 1.689 1.863 2.5 2.82a588.86 588.86 0 0 1 3.357-3.082c-.37-.381-.676-.707-.93-.983-.613-.668-.272-1.53.634-1.575 1.155-.058 2.342-.093 3.483.12.515.097.892.474.988.988.213 1.142.18 2.329.12 3.485Z"/><path d="M2.392 21.069c-.766-.02-1.347-.48-1.41-1.245a24.274 24.274 0 0 1-.065-1.949c0-.861.027-1.49.065-1.949.063-.764.643-1.226 1.41-1.245a53.456 53.456 0 0 1 2.55 0c.766.02 1.347.48 1.41 1.245.038.458.065 1.088.065 1.949s-.027 1.49-.065 1.949c-.063.764-.644 1.225-1.41 1.245-.336.009-.755.014-1.275.014-.52 0-.94-.005-1.275-.014Zm14.883-.005c-.893-.035-1.52-.663-1.577-1.555-.06-.925-.114-2.428-.114-4.842 0-2.415.054-3.917.114-4.842.057-.893.684-1.52 1.577-1.556a26.93 26.93 0 0 1 1.059-.019c.413 0 .763.007 1.058.019.893.035 1.52.663 1.578 1.556.06.925.114 2.427.114 4.842 0 2.414-.054 3.917-.114 4.842-.058.892-.685 1.52-1.578 1.555-.295.012-.645.02-1.058.02-.414 0-.764-.008-1.059-.02Zm-7.396.004c-.856-.026-1.48-.588-1.542-1.442-.048-.672-.087-1.665-.087-3.126 0-1.46.039-2.454.087-3.126.062-.854.686-1.416 1.542-1.442.308-.01.678-.015 1.121-.015.444 0 .814.006 1.122.015.856.026 1.48.588 1.541 1.442.049.672.087 1.665.087 3.126 0 1.46-.038 2.454-.087 3.126-.061.854-.685 1.416-1.541 1.442-.308.01-.678.015-1.122.015-.443 0-.813-.006-1.121-.015Z" opacity=".32"/></g><defs><clipPath id="a"><path fill="#fff" d="M0 0h22v22H0z"/></clipPath></defs></svg>