<svg width="22" height="22" fill="none" xmlns="http://www.w3.org/2000/svg"><path fill-rule="evenodd" clip-rule="evenodd" d="M2.107 7.104a5.272 5.272 0 0 1 5.226-4.583h7.334a5.272 5.272 0 0 1 5.226 4.583H2.107Zm13.018-5.958a.687.687 0 0 0-.688.688v2.75a.688.688 0 0 0 1.376 0v-2.75a.687.687 0 0 0-.688-.688Zm-8.25 0a.688.688 0 0 0-.688.688v2.75a.688.688 0 0 0 1.375 0v-2.75a.687.687 0 0 0-.687-.688Z" fill="#637381"/><path opacity=".3" fill-rule="evenodd" clip-rule="evenodd" d="M2.063 8.48v6.645a5.27 5.27 0 0 0 5.27 5.271h7.334a5.27 5.27 0 0 0 5.27-5.27V8.478H2.063Zm3.895 3.666a.688.688 0 0 1 0-1.375h.917a.687.687 0 1 1 0 1.375h-.917Zm3.896-.687c0 .38.308.687.688.687h.916a.687.687 0 1 0 0-1.375h-.916a.688.688 0 0 0-.688.688Zm4.584 0c0 .38.307.687.687.687h.917a.687.687 0 1 0 0-1.375h-.917a.687.687 0 0 0-.688.688ZM5.27 15.125c0 .38.308.688.687.688h.917a.687.687 0 1 0 0-1.375h-.917a.688.688 0 0 0-.687.687Zm4.583 0c0 .38.308.688.688.688h.916a.687.687 0 1 0 0-1.375h-.916a.688.688 0 0 0-.688.687Zm4.584 0c0 .38.307.688.687.688h.917a.687.687 0 1 0 0-1.375h-.917a.687.687 0 0 0-.688.687Z" fill="#637381"/></svg>