<svg viewBox="0 0 25 24" xmlns="http://www.w3.org/2000/svg"><path class="file" fill-rule="evenodd" clip-rule="evenodd" d="M6.645 0h8.032l6.797 7.095v13.778A3.121 3.121 0 0 1 18.356 24H6.645a3.127 3.127 0 0 1-3.119-3.127V3.118A3.125 3.125 0 0 1 6.645 0Z"/><path class="background" opacity=".4" fill-rule="evenodd" clip-rule="evenodd" d="M14.668 0v7.034h6.806L14.668 0Z"/><path class="letter" d="M8.55 15.942c-.412 0-.77-.073-1.074-.22a1.584 1.584 0 0 1-.708-.682c-.165-.309-.247-.704-.247-1.185 0-.494.092-.897.276-1.21a1.7 1.7 0 0 1 .765-.694c.324-.149.69-.223 1.1-.223a2.943 2.943 0 0 1 1.165.232.19.19 0 0 1 .1.248l-.269.674a.207.207 0 0 1-.269.113 3.506 3.506 0 0 0-.278-.096 1.478 1.478 0 0 0-.45-.068.643.643 0 0 0-.373.111.716.716 0 0 0-.252.338 1.53 1.53 0 0 0-.09.568c0 .234.03.423.09.567a.65.65 0 0 0 .255.313c.11.064.236.097.378.097.203 0 .406-.032.607-.094.089-.028.176-.061.26-.098.144-.064.318.035.318.191v.65a.187.187 0 0 1-.092.165 2.26 2.26 0 0 1-1.212.303Zm5.137-1.322c0 .259-.057.487-.172.686-.115.199-.3.354-.554.467-.251.113-.583.169-.995.169-.29 0-.55-.016-.78-.047a3.109 3.109 0 0 1-.562-.133.193.193 0 0 1-.13-.185v-.674c0-.146.15-.244.288-.194a3.5 3.5 0 0 0 .495.137c.266.05.475.076.628.076a.87.87 0 0 0 .345-.05c.074-.037.112-.09.112-.159 0-.06-.026-.11-.076-.15a1.034 1.034 0 0 0-.262-.148c-.125-.055-.3-.13-.528-.223a2.739 2.739 0 0 1-.564-.305 1.072 1.072 0 0 1-.334-.395 1.287 1.287 0 0 1-.112-.564c0-.398.154-.697.46-.898.307-.201.713-.302 1.218-.302.268 0 .52.03.758.09.18.043.365.103.555.179.101.04.147.157.104.257l-.227.536a.208.208 0 0 1-.268.108 3.91 3.91 0 0 0-.423-.139 2.02 2.02 0 0 0-.492-.083.605.605 0 0 0-.255.043c-.06.03-.09.071-.09.126 0 .05.02.095.061.133a.956.956 0 0 0 .241.133c.117.05.289.121.514.212.237.096.432.199.585.309.156.108.27.24.345.395.077.156.115.353.115.593Zm1.988 1.25a.2.2 0 0 1-.187-.129l-1.4-3.67a.2.2 0 0 1 .188-.271H15.3a.2.2 0 0 1 .192.145l.649 2.262c.007.021.019.076.036.165a1.2 1.2 0 0 1 .028.235c0 .007.006.013.013.013a.013.013 0 0 0 .012-.013c.001-.077.01-.15.026-.22.016-.075.03-.132.04-.173l.678-2.271a.2.2 0 0 1 .192-.143h1.023a.2.2 0 0 1 .187.271l-1.4 3.67a.2.2 0 0 1-.186.129h-1.115Z"/></svg>