<svg width="22" height="22" fill="none" xmlns="http://www.w3.org/2000/svg"><path opacity=".32" fill-rule="evenodd" clip-rule="evenodd" d="M19.169 7.542c-1.32.332-2.878.354-4.224-.058a1.851 1.851 0 0 1-1.205-1.18c-.478-1.403-.596-3.12-.245-4.441A99.591 99.591 0 0 0 11 1.833c-3.194 0-5.097.126-6.176.242-.799.087-1.415.628-1.565 1.417C3.027 4.722 2.75 7.02 2.75 11s.277 6.279.51 7.508c.15.79.765 1.33 1.564 1.417 1.079.116 2.982.242 6.176.242s5.097-.126 6.176-.242c.799-.086 1.415-.627 1.565-1.417.232-1.23.509-3.527.509-7.508 0-1.334-.031-2.48-.081-3.458Z" fill="#637381"/><path d="M19.17 7.541c-1.32.332-2.879.354-4.225-.057a1.851 1.851 0 0 1-1.204-1.18c-.479-1.403-.597-3.12-.245-4.442 0 0 1.122.43 3.184 2.492 2.063 2.063 2.49 3.187 2.49 3.187Z" fill="#637381"/></svg>