<svg width="29" height="28" fill="none" xmlns="http://www.w3.org/2000/svg"><path d="M13.231 15.974v-.614a2.9 2.9 0 0 1 .158-.996c.105-.294.274-.57.507-.83.232-.266.54-.537.92-.814a7.73 7.73 0 0 0 .823-.655 2.05 2.05 0 0 0 .456-.573c.1-.194.15-.413.15-.656 0-.36-.133-.634-.399-.822-.265-.188-.636-.282-1.112-.282-.476 0-.95.075-1.42.224-.464.15-.938.346-1.419.59l-.905-1.818a8.561 8.561 0 0 1 1.801-.748 7.39 7.39 0 0 1 2.125-.29c1.185 0 2.1.285 2.748.855.653.564.98 1.284.98 2.158 0 .465-.075.869-.225 1.212a2.95 2.95 0 0 1-.664.946 9.778 9.778 0 0 1-1.104.913 8.571 8.571 0 0 0-.763.615 1.432 1.432 0 0 0-.365.498 1.67 1.67 0 0 0-.092.59v.497h-2.2Zm-.265 2.839c0-.52.14-.885.423-1.096.288-.21.634-.315 1.038-.315.393 0 .73.105 1.013.315.287.21.431.576.431 1.096 0 .498-.144.858-.431 1.08a1.6 1.6 0 0 1-1.013.331c-.404 0-.75-.11-1.038-.332-.282-.221-.423-.581-.423-1.079Z" fill="#9FAFBD"/><rect x="1.3" y=".5" width="27" height="27" rx="13.5" stroke="#DCE0E4"/></svg>