<svg width="22" height="22" fill="none" xmlns="http://www.w3.org/2000/svg"><path opacity=".32" d="M19.416 15.556c-.26.6-.879.944-1.533.944H13.58a2.83 2.83 0 0 0-.545-2.845 83.18 83.18 0 0 0 .449-5.162c.042-.731-.854-.976-1.177-.32a82.148 82.148 0 0 0-2.148 4.698 2.775 2.775 0 0 0-1.816 1.94 2.83 2.83 0 0 0 .075 1.689H4.117c-.655 0-1.273-.343-1.533-.944a9.167 9.167 0 1 1 16.832 0Z" fill="#637381"/><path d="M13.485 8.493c.042-.731-.854-.976-1.176-.32a82.05 82.05 0 0 0-2.148 4.698 2.774 2.774 0 0 0-1.817 1.94c-.393 1.492.478 3.026 1.944 3.426 1.467.4 2.975-.486 3.368-1.978a2.83 2.83 0 0 0-.62-2.604c.224-1.822.364-3.688.449-5.162Z" fill="#637381"/></svg>