<svg viewBox="0 0 20 20" xmlns="http://www.w3.org/2000/svg"><path d="M17.5 5h-4.166V3.608a2.017 2.017 0 0 0-2.084-1.941h-2.5a2.017 2.017 0 0 0-2.083 1.941V5H2.5a.833.833 0 1 0 0 1.667h.834v9.166a2.5 2.5 0 0 0 2.5 2.5h8.333a2.5 2.5 0 0 0 2.5-2.5V6.667h.833A.833.833 0 0 0 17.5 5ZM8.334 3.608c0-.133.175-.275.416-.275h2.5c.242 0 .417.142.417.275V5H8.334V3.608ZM15 15.833a.833.833 0 0 1-.833.834H5.834A.833.833 0 0 1 5 15.833V6.667h10v9.166Z"/><path d="M7.5 14.167a.833.833 0 0 0 .834-.834V10a.833.833 0 0 0-1.667 0v3.333a.833.833 0 0 0 .833.834Zm5 0a.833.833 0 0 0 .834-.834V10a.833.833 0 0 0-1.667 0v3.333a.833.833 0 0 0 .833.834Z"/></svg>