<svg width="22" height="22" fill="none" xmlns="http://www.w3.org/2000/svg"><path fill-rule="evenodd" clip-rule="evenodd" d="m18.615 17.343.15.02.25.035c1.092.154 2.069-.678 2.069-1.761v-.827c0-.775-.496-1.466-1.239-1.726a11.48 11.48 0 0 0-2.638-.588 3.651 3.651 0 0 1 1.512 2.958v1.027c0 .298-.036.586-.104.862Zm-3.782-5.947c.372.154.78.238 1.209.238 1.724 0 3.122-1.373 3.122-3.067 0-1.694-1.398-3.067-3.122-3.067-.051 0-.102.001-.152.004.313.667.488 1.413.488 2.2a5.167 5.167 0 0 1-1.545 3.692ZM3.735 17.343l-.15.02-.25.035c-1.092.154-2.069-.678-2.069-1.761v-.827c0-.775.496-1.466 1.238-1.726a11.481 11.481 0 0 1 2.639-.588 3.651 3.651 0 0 0-1.512 2.958v1.027c0 .298.036.586.104.862Zm3.782-5.947a3.16 3.16 0 0 1-1.21.238c-1.724 0-3.122-1.373-3.122-3.067 0-1.694 1.398-3.067 3.123-3.067.05 0 .102.001.152.004a5.163 5.163 0 0 0-.489 2.2c0 1.445.592 2.752 1.546 3.692Z" fill="#637381"/><path opacity=".3" fill-rule="evenodd" clip-rule="evenodd" d="M6.557 13.312a13.79 13.79 0 0 1 9.277 0 2.276 2.276 0 0 1 1.51 2.143v1.026a2.21 2.21 0 0 1-2.522 2.188l-.306-.044a23.482 23.482 0 0 0-6.641 0l-.306.044a2.21 2.21 0 0 1-2.522-2.188v-1.026c0-.962.604-1.82 1.51-2.143Zm8.446-5.608a3.808 3.808 0 1 0-7.616 0 3.808 3.808 0 0 0 7.616 0Z" fill="#637381"/></svg>