<svg viewBox="0 0 25 24" xmlns="http://www.w3.org/2000/svg"><path class="file" fill-rule="evenodd" clip-rule="evenodd" d="M6.645 0h8.032l6.797 7.095v13.778A3.121 3.121 0 0 1 18.356 24H6.645a3.127 3.127 0 0 1-3.119-3.127V3.118A3.125 3.125 0 0 1 6.645 0Z"/><path class="background" opacity=".4" fill-rule="evenodd" clip-rule="evenodd" d="M14.668 0v7.034h6.806L14.668 0Z"/><path class="letter" d="M8.738 15.697a.2.2 0 0 1-.164.314h-.865a.2.2 0 0 1-.17-.094l-.617-.99a.2.2 0 0 0-.34 0l-.61.99a.2.2 0 0 1-.17.094h-.849a.2.2 0 0 1-.167-.309l1.17-1.806a.2.2 0 0 0 .001-.216l-1.089-1.705a.2.2 0 0 1 .169-.308h.821a.2.2 0 0 1 .173.099l.55.943a.2.2 0 0 0 .348-.003l.526-.937a.2.2 0 0 1 .174-.102h.864a.2.2 0 0 1 .17.306l-1.117 1.796a.2.2 0 0 0 .006.22l1.186 1.708Zm.909.314a.2.2 0 0 1-.2-.2v-3.944c0-.11.09-.2.2-.2h.773c.11 0 .2.09.2.2v2.996c0 .11.09.2.2.2h1.273c.11 0 .2.09.2.2v.548a.2.2 0 0 1-.2.2H9.647Zm6.183-1.319c0 .236-.06.46-.179.671-.119.21-.304.38-.556.511-.25.131-.572.196-.968.196-.198 0-.373-.008-.523-.026a2.375 2.375 0 0 1-.702-.195.194.194 0 0 1-.115-.179v-.594c0-.149.157-.246.295-.19.139.055.278.102.418.139.24.061.456.092.65.092a.82.82 0 0 0 .286-.042.354.354 0 0 0 .166-.113.282.282 0 0 0 .054-.17.254.254 0 0 0-.08-.19.931.931 0 0 0-.25-.166 13.502 13.502 0 0 0-.455-.214 4.679 4.679 0 0 1-.437-.231 1.56 1.56 0 0 1-.332-.27 1.104 1.104 0 0 1-.211-.36 1.42 1.42 0 0 1-.075-.485c0-.28.069-.513.205-.701.139-.19.331-.333.577-.428.247-.095.533-.143.855-.143.284 0 .538.032.764.096.157.043.302.09.436.143.1.039.145.152.106.251l-.212.533a.208.208 0 0 1-.27.113 3.48 3.48 0 0 0-.357-.12 1.835 1.835 0 0 0-.502-.076.687.687 0 0 0-.25.038.31.31 0 0 0-.142.098.24.24 0 0 0-.045.143c0 .067.026.127.077.181.054.053.142.112.265.175.125.062.294.142.508.241.212.095.392.198.54.31.15.108.262.24.34.394.079.153.118.342.118.568Zm4.366 1.005a.2.2 0 0 1-.164.314h-.865a.2.2 0 0 1-.17-.094l-.617-.99a.2.2 0 0 0-.34 0l-.61.99a.2.2 0 0 1-.17.094h-.849a.2.2 0 0 1-.168-.309l1.171-1.806a.2.2 0 0 0 .001-.216l-1.09-1.705a.2.2 0 0 1 .17-.308h.821a.2.2 0 0 1 .173.099l.55.943a.2.2 0 0 0 .347-.003l.527-.937a.2.2 0 0 1 .174-.102h.863a.2.2 0 0 1 .17.306l-1.116 1.796a.2.2 0 0 0 .005.22l1.187 1.708Z"/></svg>