<svg viewBox="0 0 20 20" xmlns="http://www.w3.org/2000/svg"><path d="M9 10.605c.288.4.655.73 1.076.97a3.236 3.236 0 0 0 2.776.207c.45-.176.859-.448 1.198-.801l2.01-2.087c.61-.656.948-1.534.94-2.446a3.547 3.547 0 0 0-.98-2.43A3.289 3.289 0 0 0 13.68 3a3.284 3.284 0 0 0-2.356.976l-1.152 1.19"/><path d="M11 9.395a3.39 3.39 0 0 0-1.076-.97 3.235 3.235 0 0 0-2.776-.206c-.45.175-.859.447-1.198.8l-2.01 2.087A3.55 3.55 0 0 0 3 13.552c.008.912.36 1.784.98 2.43A3.288 3.288 0 0 0 6.32 17a3.284 3.284 0 0 0 2.356-.976l1.145-1.19"/></svg>