<svg width="165" height="40" fill="none" xmlns="http://www.w3.org/2000/svg"><g clip-path="url(#a)"><path fill-rule="evenodd" clip-rule="evenodd" d="M147.595 38.43c.059.866.757 1.57 1.625 1.57h.843a2.41 2.41 0 0 0 1.706-.707l12.419-12.42a2.064 2.064 0 1 0-2.92-2.92l-13.21 13.21a1.627 1.627 0 0 0-.463 1.268Zm14.28 1.57a2.06 2.06 0 0 0 1.456-.603l.841-.84a2.059 2.059 0 0 0-2.912-2.913l-.841.84c-1.297 1.298-.378 3.516 1.456 3.516Zm-18.721-3.7c.403 2.016-1.302 3.7-3.359 3.7H128.5a3.724 3.724 0 0 1-3.724-3.724V24.98c0-2.056 1.684-3.762 3.701-3.358 7.382 1.478 13.198 7.294 14.677 14.676ZM125.378 1.464a2.054 2.054 0 0 0-.602 1.452c0 1.829 2.212 2.745 3.505 1.452l.851-.85a2.053 2.053 0 1 0-2.904-2.905l-.85.85Zm15.428 2.061a2.064 2.064 0 1 0-2.92-2.92l-12.403 12.402a2.415 2.415 0 0 0-.707 1.706v.844c0 .867.704 1.565 1.569 1.625.47.032.936-.13 1.269-.464l13.192-13.193Zm-6.097 15.867c.751.362 1.666.248 2.255-.342l15.525-15.524a2.066 2.066 0 0 0-2.921-2.921l-15.517 15.517c-.982.982-.593 2.667.658 3.27Zm6.245 4.43c.786.786 2.069.853 2.854.067l20.345-20.345a2.064 2.064 0 1 0-2.92-2.92l-20.345 20.344c-.786.786-.72 2.069.066 2.854Zm4.431 6.245c.602 1.25 2.288 1.64 3.269.658L164.18 15.2a2.065 2.065 0 1 0-2.921-2.92l-15.533 15.533c-.589.59-.703 1.504-.341 2.255Z" fill="#FFE100"/><path fill-rule="evenodd" clip-rule="evenodd" d="M0 3.4c0-.94.762-1.702 1.702-1.702h9.556c.94 0 1.702.762 1.702 1.702v.939c0 .94-.762 1.702-1.702 1.702H7.03c-.94 0-1.702.761-1.702 1.701v1.432c0 .94.762 1.702 1.702 1.702h3.34c.94 0 1.702.761 1.702 1.701v.643c0 .94-.762 1.701-1.702 1.701H7.03c-.94 0-1.702.762-1.702 1.702v5.28c0 .94-.761 1.702-1.701 1.702H1.702c-.94 0-1.702-.762-1.702-1.701V3.4Zm15.17 12.936v-8.33c0-.94.762-1.702 1.702-1.702h1.597c.94 0 1.702.761 1.702 1.701v7.97c0 2.861.822 3.946 3.322 3.946 2.302 0 3.124-1.217 3.124-3.815v-8.1c0-.94.762-1.702 1.702-1.702h1.202a1.7 1.7 0 0 1 1.701 1.701v7.805c0 5.263-2.73 8.091-7.828 8.091-5.46 0-8.223-2.5-8.223-7.565Zm19.75-8.331c0-.94.763-1.701 1.702-1.701h.285c.493 0 .958.21 1.28.581 1.766 2.031 7.571 8.712 7.926 9.146a.067.067 0 0 0 .05.022.03.03 0 0 0 .031-.033c-.015-.212-.13-1.254-.13-2.513V8.005c0-.94.762-1.701 1.702-1.701h1.037c.94 0 1.702.761 1.702 1.701v14.04a1.561 1.561 0 0 1-2.73 1.034c-1.788-2.038-8.168-9.313-8.438-9.64-.01-.011-.017-.01-.032-.01a.038.038 0 0 0-.039.042c.018.188.095.98.095 2.174v6.259a1.7 1.7 0 0 1-1.701 1.701h-1.038a1.7 1.7 0 0 1-1.701-1.701V8.005Zm67.295 0a1.7 1.7 0 0 1 1.701-1.701h.285c.492 0 .957.21 1.28.581 1.766 2.031 7.57 8.71 7.926 9.146a.065.065 0 0 0 .05.022.03.03 0 0 0 .031-.033c-.015-.213-.13-1.254-.13-2.513V8.005a1.7 1.7 0 0 1 1.701-1.701h1.038c.94 0 1.702.761 1.702 1.701v14.04a1.561 1.561 0 0 1-2.731 1.034c-1.787-2.038-8.168-9.312-8.437-9.64-.01-.011-.017-.01-.032-.01a.038.038 0 0 0-.039.042c.018.188.095.98.095 2.174v6.259c0 .94-.762 1.701-1.702 1.701h-1.037a1.7 1.7 0 0 1-1.701-1.701V8.005ZM66.892 23.091c-1.313-.544-1.604-2.138-.883-3.363.496-.841 1.58-1.054 2.47-.651.793.36 1.832.68 3.048.68 2.073 0 3.159-.921 3.159-2.171 0-1.71-2.27-2.072-4.836-3.388-2.697-1.316-4.572-3.06-4.572-6.644 0-3.816 3.19-6.25 7.302-6.25 2.491 0 4.186.526 5.327 1.091.77.382.967 1.348.545 2.098l-.47.835c-.472.839-1.545 1.11-2.442.761-.769-.297-1.684-.542-2.598-.542-1.677 0-2.631.658-2.631 1.974 0 1.546 1.71 1.973 4.045 3.026 2.895 1.282 5.428 2.763 5.428 6.743 0 4.144-3.027 6.71-8.092 6.71-1.993 0-3.596-.41-4.8-.909Zm15.572-6.755v-8.33c0-.94.762-1.702 1.702-1.702h1.597a1.7 1.7 0 0 1 1.701 1.701v7.97c0 2.861.823 3.946 3.323 3.946 2.302 0 3.124-1.217 3.124-3.815v-8.1c0-.94.762-1.702 1.702-1.702h1.202c.94 0 1.702.761 1.702 1.701v7.805c0 5.263-2.73 8.091-7.83 8.091-5.46 0-8.223-2.5-8.223-7.565ZM58.301 12.24c.481-.37.77-.685.77-1.194 0-.603-.509-.973-1.126-.973-.618 0-1.057.342-1.057.987 0 .55.37.948.7 1.263l.26.247.453-.33Zm1.579 4.407-2.375-2.457-.397.26c-.59.399-.879.893-.879 1.51 0 .988.728 1.51 1.77 1.51a2.47 2.47 0 0 0 1.881-.823Zm2.938-2.718c-.151.988-.495 1.935-1.03 2.704l1.219 1.242-.957.972-1.2-1.219-.174.158a4.208 4.208 0 0 1-2.731 1.015c-1.908 0-3.253-.974-3.253-2.8 0-1.345.864-2.113 1.688-2.649l.181-.115-.18-.213c-.59-.701-.92-1.168-.92-1.991 0-1.277.96-2.21 2.443-2.21 1.468 0 2.594.823 2.594 2.182 0 1.057-.728 1.675-1.826 2.444l2.086 2.155c.289-.48.467-1.085.563-1.675h1.497Z" fill="#E73C3E"/><path d="M0 31.77a2.4 2.4 0 0 1 2.4-2.4h112.8a2.4 2.4 0 0 1 2.4 2.4v5.83a2.4 2.4 0 0 1-2.4 2.4H2.4A2.4 2.4 0 0 1 0 37.6v-5.83Z" fill="#E73C3E"/><path d="M8.253 38.125a.8.8 0 0 1-.77-.581L6.25 33.206a.023.023 0 0 0-.045.008c.012.126.024.29.036.496.015.218.03.454.042.708.012.253.019.496.019.73v2.177a.8.8 0 0 1-.8.8h-.04a.8.8 0 0 1-.8-.8v-5.253a.8.8 0 0 1 .8-.8h1.066a.8.8 0 0 1 .768.575l1.255 4.273a.025.025 0 0 0 .048 0l1.23-4.27a.8.8 0 0 1 .769-.578h1.068a.8.8 0 0 1 .8.8v5.253a.8.8 0 0 1-.8.8h-.102a.8.8 0 0 1-.8-.8v-2.204a27.742 27.742 0 0 1 .069-1.898.023.023 0 0 0-.045-.007l-1.215 4.326a.8.8 0 0 1-.77.583h-.551Zm16.159-.755a.755.755 0 0 1-.755.755h-2.514a.8.8 0 0 1-.8-.8v-5.253a.8.8 0 0 1 .8-.8h2.526a.743.743 0 1 1 0 1.486h-.935a.54.54 0 1 0 0 1.078h.771a.743.743 0 0 1 0 1.486h-.663a.647.647 0 1 0 0 1.294h.815c.417 0 .755.338.755.755Zm13.418-2.817c0 .797-.15 1.46-.446 1.988a2.855 2.855 0 0 1-1.256 1.19c-.538.263-1.17.394-1.899.394h-1.417a.8.8 0 0 1-.8-.8v-5.253a.8.8 0 0 1 .8-.8h1.572c.737 0 1.362.127 1.875.38a2.61 2.61 0 0 1 1.167 1.11c.269.488.403 1.085.403 1.791Zm-1.923.066c0-.416-.056-.76-.168-1.031a1.214 1.214 0 0 0-.497-.614c-.222-.138-.502-.206-.84-.206a.539.539 0 0 0-.538.539v2.887c0 .228.184.413.412.413.563 0 .975-.163 1.238-.488.262-.328.393-.828.393-1.5Zm10.355 3.506a.8.8 0 0 1-.8-.8v-5.253a.8.8 0 0 1 .8-.8h.261a.8.8 0 0 1 .8.8v5.253a.8.8 0 0 1-.8.8h-.26Zm13.768 0a.8.8 0 0 1-.773-.596l-.024-.091a.8.8 0 0 0-.774-.597h-.997a.8.8 0 0 0-.772.591l-.027.102a.8.8 0 0 1-.773.591h-.32a.8.8 0 0 1-.761-1.047l1.716-5.281a.8.8 0 0 1 .76-.553h1.31a.8.8 0 0 1 .76.55l1.738 5.281a.8.8 0 0 1-.76 1.05h-.302Zm-2.067-2.803a.562.562 0 0 0 .544-.705l-.11-.42a59.009 59.009 0 0 1-.314-1.224l-.005-.019c-.028-.121-.22-.12-.249.001-.05.228-.103.455-.16.68-.052.225-.1.412-.14.562l-.11.42a.562.562 0 0 0 .544.705Zm12.993-4.05c.869 0 1.519.19 1.95.568.434.378.651.915.651 1.612 0 .313-.045.613-.136.9a2.005 2.005 0 0 1-.436.769 2.05 2.05 0 0 1-.801.534c-.331.131-.74.197-1.228.197a.52.52 0 0 0-.52.52v.953a.8.8 0 0 1-.8.8h-.252a.8.8 0 0 1-.8-.8v-5.253a.8.8 0 0 1 .8-.8h1.572Zm-.042 1.496a.478.478 0 0 0-.478.478v.731c0 .202.163.366.365.366.16 0 .308-.027.445-.08a.707.707 0 0 0 .329-.267c.084-.125.126-.29.126-.497a.73.73 0 0 0-.192-.525c-.128-.138-.327-.206-.595-.206Zm10.936 5.357a.8.8 0 0 1-.8-.8v-5.253a.8.8 0 0 1 .8-.8h.251a.8.8 0 0 1 .8.8v3.758a.8.8 0 0 0 .8.8h1.092a.748.748 0 1 1 0 1.495H81.85Zm16.009 0a.8.8 0 0 1-.774-.596l-.024-.091a.8.8 0 0 0-.774-.597h-.997a.8.8 0 0 0-.772.591l-.027.102a.8.8 0 0 1-.773.591h-.32a.8.8 0 0 1-.761-1.047l1.716-5.281a.8.8 0 0 1 .76-.553h1.31a.8.8 0 0 1 .76.55l1.738 5.281a.8.8 0 0 1-.76 1.05h-.302Zm-2.068-2.803a.562.562 0 0 0 .544-.705l-.11-.42a57.119 57.119 0 0 1-.319-1.243c-.028-.121-.22-.12-.249.001-.05.228-.103.455-.159.68-.053.225-.1.412-.14.562l-.11.42a.562.562 0 0 0 .543.705Zm17.146 2.003a.8.8 0 0 1-.8.8h-1.142a.801.801 0 0 1-.71-.431l-2.272-4.384a.026.026 0 0 0-.022-.013.025.025 0 0 0-.025.027 12 12 0 0 1 .04.503c.012.206.023.417.033.633.009.212.014.404.014.576v2.29a.8.8 0 0 1-.8.8h-.041a.8.8 0 0 1-.8-.8v-5.254a.8.8 0 0 1 .8-.8h1.135a.8.8 0 0 1 .708.43l2.265 4.324a.019.019 0 0 0 .015.009c.01 0 .017-.008.017-.018a36.246 36.246 0 0 1-.027-.503l-.029-.604a18.499 18.499 0 0 1-.009-.54v-2.298a.8.8 0 0 1 .8-.8h.05a.8.8 0 0 1 .8.8v5.253Z" fill="#fff"/></g><defs><clipPath id="a"><path fill="#fff" d="M0 0h164.8v40H0z"/></clipPath></defs></svg>