<svg width="22" height="22" fill="none" xmlns="http://www.w3.org/2000/svg"><path opacity=".32" d="M2.09 18.02c.082.787.598 1.41 1.372 1.574 1.221.26 3.524.573 7.538.573 4.013 0 6.316-.313 7.538-.573.773-.164 1.29-.787 1.37-1.575.121-1.166.258-3.31.258-7.019 0-3.71-.137-5.852-.257-7.02-.081-.786-.598-1.41-1.371-1.574-1.222-.26-3.525-.573-7.538-.573-4.014 0-6.317.313-7.538.573-.774.165-1.29.788-1.371 1.575-.12 1.167-.258 3.31-.258 7.02 0 3.709.137 5.851.258 7.019Z" fill="#637381"/><path d="M12.776 12.701A3.819 3.819 0 0 0 11 5.5a3.82 3.82 0 0 0-1.777 7.201c-1.626.62-2.868 2.066-3.253 3.848-.053.246.083.5.331.544.892.162 2.368.324 4.7.324 2.333 0 3.809-.163 4.7-.324.248-.045.383-.297.33-.543-.384-1.782-1.627-3.229-3.254-3.849Z" fill="#637381"/></svg>