<svg width="22" height="22" fill="none" xmlns="http://www.w3.org/2000/svg"><path d="M13.402 1.775a4.9 4.9 0 0 0-4.803 0L3.064 4.884c-1.337.75-1.337 2.683 0 3.434l5.533 3.108a4.9 4.9 0 0 0 4.803 0l5.534-3.108c1.337-.751 1.337-2.683 0-3.434l-5.533-3.11Z" fill="#637381"/><path opacity=".3" d="M2.727 14.059c-.987.861-.875 2.514.338 3.196l5.533 3.108a4.9 4.9 0 0 0 4.803 0l5.534-3.108c1.213-.682 1.325-2.335.338-3.196l-5.198 2.92a6.275 6.275 0 0 1-6.15 0l-5.198-2.92Z" fill="#637381"/><path opacity=".3" d="M2.727 9.625c-.987.862-.875 2.515.338 3.196l5.533 3.109a4.9 4.9 0 0 0 4.803 0l5.534-3.11c1.213-.68 1.325-2.333.338-3.195l-5.198 2.92a6.275 6.275 0 0 1-6.15 0l-5.198-2.92Z" fill="#637381"/></svg>