<svg width="22" height="22" fill="none" xmlns="http://www.w3.org/2000/svg"><path opacity=".32" fill-rule="evenodd" clip-rule="evenodd" d="M19.169 7.541c-1.32.332-2.878.354-4.224-.057a1.851 1.851 0 0 1-1.205-1.18c-.478-1.403-.596-3.12-.245-4.442A99.64 99.64 0 0 0 11 1.833c-3.194 0-5.097.126-6.176.242-.799.086-1.415.628-1.565 1.417C3.027 4.722 2.75 7.02 2.75 11s.277 6.279.51 7.508c.15.79.765 1.33 1.564 1.417 1.079.116 2.982.242 6.176.242s5.097-.126 6.176-.242c.799-.086 1.415-.628 1.565-1.417.232-1.23.509-3.527.509-7.508 0-1.334-.031-2.48-.081-3.459ZM7.333 11.917a.917.917 0 1 1 0-1.834H11a.917.917 0 1 1 0 1.834H7.333Zm0 4.125a.917.917 0 1 1 0-1.834h6.417a.917.917 0 1 1 0 1.834H7.333Z" fill="#637381"/><path d="M6.417 15.125c0 .506.41.917.917.917h6.416a.917.917 0 1 0 0-1.834H7.334a.917.917 0 0 0-.917.917Zm0-4.125c0 .506.41.917.917.917H11a.917.917 0 1 0 0-1.834H7.334a.917.917 0 0 0-.917.917ZM19.17 7.541c-1.32.332-2.879.354-4.225-.057a1.851 1.851 0 0 1-1.204-1.18c-.479-1.403-.597-3.12-.245-4.442 0 0 1.122.43 3.184 2.492 2.063 2.063 2.49 3.187 2.49 3.187Z" fill="#637381"/></svg>