<svg width="22" height="22" viewBox="0 0 22 22" fill="none" xmlns="http://www.w3.org/2000/svg">
<g clip-path="url(#clip0_1302_2585)">
<path d="M19.2139 5.54655C19.1684 6.45217 18.3069 6.79243 17.6388 6.17941C17.335 5.90065 16.9713 5.5575 16.5386 5.13611C15.5613 6.0255 14.0455 7.41219 12.2383 9.09024C11.7638 9.53093 10.993 9.48166 10.5784 8.98414L10.5781 8.98377C9.76443 8.01032 8.94475 7.0408 8.09651 6.09728C7.10532 6.82502 5.32616 8.21189 3.56055 9.97748C3.11308 10.425 2.38757 10.425 1.9401 9.97748C1.49262 9.53001 1.49262 8.80452 1.9401 8.35705C3.67225 6.62491 5.57274 5.00012 7.611 3.63304L7.61416 3.63091C7.61494 3.63041 7.61471 3.63054 7.61471 3.63054C8.06919 3.32757 8.67433 3.38749 9.06057 3.77371C9.94785 4.661 10.7496 5.63698 11.5611 6.59343C12.9408 5.31743 14.1031 4.25429 14.9181 3.51228C14.5482 3.13063 14.2418 2.80522 13.9886 2.52922C13.3754 1.86097 13.7159 0.999311 14.6217 0.953726C15.7775 0.895559 16.9637 0.86133 18.1055 1.07479C18.6196 1.17091 18.9967 1.54807 19.0928 2.06219C19.3062 3.20411 19.2721 4.39052 19.2139 5.54655Z" fill="#637381"/>
<g opacity="0.32">
<path d="M2.39233 21.0689C1.6255 21.0495 1.04467 20.5882 0.981979 19.8237C0.944433 19.3658 0.916992 18.7365 0.916992 17.875C0.916992 17.0135 0.944433 16.3842 0.981979 15.9263C1.04467 15.1618 1.6255 14.7005 2.39233 14.6811C2.72782 14.6725 3.1473 14.6667 3.66699 14.6667C4.18669 14.6667 4.60616 14.6725 4.94166 14.6811C5.7085 14.7005 6.2893 15.1618 6.352 15.9263C6.38954 16.3842 6.41699 17.0135 6.41699 17.875C6.41699 18.7365 6.38954 19.3658 6.352 19.8237C6.2893 20.5882 5.7085 21.0495 4.94166 21.0689C4.60616 21.0775 4.18669 21.0833 3.66699 21.0833C3.1473 21.0833 2.72782 21.0775 2.39233 21.0689Z" fill="#637381"/>
<path d="M17.2754 21.0643C16.382 21.0291 15.7555 20.401 15.6976 19.5088C15.6376 18.5836 15.5837 17.0809 15.5837 14.6667C15.5837 12.2524 15.6376 10.7497 15.6976 9.82456C15.7555 8.93232 16.382 8.30427 17.2754 8.26902C17.5702 8.25738 17.9202 8.25 18.3337 8.25C18.7471 8.25 19.0972 8.25738 19.392 8.26902C20.2853 8.30427 20.9118 8.93232 20.9697 9.82456C21.0298 10.7497 21.0837 12.2524 21.0837 14.6667C21.0837 17.0809 21.0298 18.5836 20.9697 19.5088C20.9118 20.401 20.2853 21.0291 19.392 21.0643C19.0972 21.076 18.7471 21.0833 18.3337 21.0833C17.9202 21.0833 17.5702 21.076 17.2754 21.0643Z" fill="#637381"/>
<path d="M9.87888 21.0679C9.0228 21.0419 8.39883 20.48 8.33732 19.6258C8.28901 18.9544 8.25033 17.9608 8.25033 16.5C8.25033 15.0392 8.28901 14.0456 8.33732 13.3742C8.39883 12.52 9.0228 11.9581 9.87888 11.9321C10.1865 11.9228 10.5569 11.9167 11.0003 11.9167C11.4437 11.9167 11.8142 11.9228 12.1218 11.9321C12.9779 11.9581 13.6018 12.52 13.6633 13.3742C13.7116 14.0456 13.7503 15.0392 13.7503 16.5C13.7503 17.9608 13.7116 18.9544 13.6633 19.6258C13.6018 20.48 12.9779 21.0419 12.1218 21.0679C11.8142 21.0772 11.4437 21.0833 11.0003 21.0833C10.5569 21.0833 10.1865 21.0772 9.87888 21.0679Z" fill="#637381"/>
</g>
</g>
<defs>
<clipPath id="clip0_1302_2585">
<rect width="22" height="22" fill="white"/>
</clipPath>
</defs>
</svg>
