<svg width="22" height="22" viewBox="0 0 22 22" fill="none" xmlns="http://www.w3.org/2000/svg">
<path fill-rule="evenodd" clip-rule="evenodd" d="M2.10693 7.10433C2.44381 4.51817 4.65534 2.521 7.33334 2.521H14.6667C17.3447 2.521 19.5562 4.51817 19.8931 7.10433H2.10693ZM15.125 1.146C14.7453 1.146 14.4375 1.4538 14.4375 1.8335V4.5835C14.4375 4.96319 14.7453 5.271 15.125 5.271C15.5047 5.271 15.8125 4.96319 15.8125 4.5835V1.8335C15.8125 1.4538 15.5047 1.146 15.125 1.146ZM6.875 1.146C6.49531 1.146 6.1875 1.4538 6.1875 1.8335V4.5835C6.1875 4.96319 6.49531 5.271 6.875 5.271C7.2547 5.271 7.5625 4.96319 7.5625 4.5835V1.8335C7.5625 1.4538 7.2547 1.146 6.875 1.146Z" fill="#637381"/>
<path opacity="0.3" fill-rule="evenodd" clip-rule="evenodd" d="M2.0625 8.47949V15.1253C2.0625 18.0363 4.42233 20.3962 7.33333 20.3962H14.6667C17.5777 20.3962 19.9375 18.0363 19.9375 15.1253V8.47949H2.0625ZM5.95833 12.1462C5.57864 12.1462 5.27083 11.8384 5.27083 11.4587C5.27083 11.079 5.57864 10.7712 5.95833 10.7712H6.875C7.2547 10.7712 7.5625 11.079 7.5625 11.4587C7.5625 11.8384 7.2547 12.1462 6.875 12.1462H5.95833ZM9.85417 11.4587C9.85417 11.8384 10.162 12.1462 10.5417 12.1462H11.4583C11.838 12.1462 12.1458 11.8384 12.1458 11.4587C12.1458 11.079 11.838 10.7712 11.4583 10.7712H10.5417C10.162 10.7712 9.85417 11.079 9.85417 11.4587ZM14.4375 11.4587C14.4375 11.8384 14.7453 12.1462 15.125 12.1462H16.0417C16.4214 12.1462 16.7292 11.8384 16.7292 11.4587C16.7292 11.079 16.4214 10.7712 16.0417 10.7712H15.125C14.7453 10.7712 14.4375 11.079 14.4375 11.4587ZM5.27083 15.1253C5.27083 15.505 5.57864 15.8128 5.95833 15.8128H6.875C7.2547 15.8128 7.5625 15.505 7.5625 15.1253C7.5625 14.7456 7.2547 14.4378 6.875 14.4378H5.95833C5.57864 14.4378 5.27083 14.7456 5.27083 15.1253ZM9.85417 15.1253C9.85417 15.505 10.162 15.8128 10.5417 15.8128H11.4583C11.838 15.8128 12.1458 15.505 12.1458 15.1253C12.1458 14.7456 11.838 14.4378 11.4583 14.4378H10.5417C10.162 14.4378 9.85417 14.7456 9.85417 15.1253ZM14.4375 15.1253C14.4375 15.505 14.7453 15.8128 15.125 15.8128H16.0417C16.4214 15.8128 16.7292 15.505 16.7292 15.1253C16.7292 14.7456 16.4214 14.4378 16.0417 14.4378H15.125C14.7453 14.4378 14.4375 14.7456 14.4375 15.1253Z" fill="#637381"/>
</svg>
