<svg viewBox="0 0 25 24" xmlns="http://www.w3.org/2000/svg">
<path class="file" fill-rule="evenodd" clip-rule="evenodd" d="M6.64461 0H14.6767L21.4738 7.09489V20.873C21.4738 22.5985 20.0811 24 18.3556 24H6.64461C4.92782 24 3.52637 22.5985 3.52637 20.873V3.11824C3.52634 1.40145 4.92782 0 6.64461 0Z"/>
<path class="background" opacity="0.4" fill-rule="evenodd" clip-rule="evenodd" d="M14.668 0V7.03358H21.4738L14.668 0Z"/>
<path class="letter" d="M8.55014 15.9418C8.13823 15.9418 7.7802 15.8687 7.47605 15.7226C7.17191 15.5742 6.93601 15.3466 6.76838 15.0401C6.60313 14.7312 6.52051 14.336 6.52051 13.8547C6.52051 13.3613 6.61271 12.9578 6.79711 12.6441C6.98391 12.3303 7.23896 12.0992 7.56227 11.9507C7.88557 11.8023 8.25199 11.728 8.66151 11.728C8.91057 11.728 9.14646 11.7556 9.36918 11.8106C9.53049 11.8501 9.6832 11.9 9.82729 11.9604C9.9231 12.0006 9.96473 12.1111 9.92632 12.2076L9.65795 12.8821C9.61601 12.9875 9.49506 13.0364 9.38936 12.9952C9.29242 12.9574 9.19948 12.9254 9.11054 12.8991C8.96685 12.8536 8.81717 12.8309 8.66151 12.8309C8.52021 12.8309 8.39568 12.868 8.28791 12.9422C8.18014 13.0165 8.09632 13.129 8.03645 13.2799C7.97658 13.4284 7.94664 13.6176 7.94664 13.8475C7.94664 14.0822 7.97658 14.2714 8.03645 14.4151C8.09872 14.5587 8.18373 14.6629 8.2915 14.7276C8.40166 14.7922 8.52739 14.8246 8.66869 14.8246C8.87225 14.8246 9.07462 14.7934 9.27579 14.7312C9.3649 14.7029 9.45195 14.67 9.53693 14.6325C9.68027 14.5693 9.85414 14.6675 9.85414 14.8242V15.4747C9.85414 15.542 9.82061 15.6054 9.76241 15.6393C9.61835 15.7232 9.45973 15.7916 9.28656 15.8448C9.07581 15.9094 8.83034 15.9418 8.55014 15.9418Z"/>
<path class="letter" d="M13.6871 14.6198C13.6871 14.8785 13.6296 15.1072 13.5147 15.3059C13.3997 15.5047 13.2153 15.6604 12.9615 15.7729C12.71 15.8855 12.3783 15.9418 11.9664 15.9418C11.6766 15.9418 11.4168 15.9262 11.1869 15.8951C11.0016 15.8697 10.8139 15.8253 10.6238 15.7618C10.5449 15.7354 10.4936 15.6604 10.4936 15.5772V14.9026C10.4936 14.7569 10.6448 14.6595 10.7819 14.7088C10.945 14.7673 11.1099 14.8131 11.2767 14.8461C11.5425 14.8964 11.7521 14.9216 11.9053 14.9216C12.0634 14.9216 12.1783 14.9048 12.2502 14.8713C12.3244 14.8353 12.3616 14.7827 12.3616 14.7132C12.3616 14.6533 12.3364 14.603 12.2861 14.5623C12.2382 14.5192 12.1508 14.4701 12.0239 14.4151C11.8993 14.36 11.7233 14.2857 11.4958 14.1923C11.2707 14.0989 11.0827 13.9971 10.9318 13.887C10.7833 13.7768 10.672 13.6451 10.5977 13.4918C10.5235 13.3386 10.4864 13.1506 10.4864 12.9278C10.4864 12.5303 10.6397 12.2309 10.9462 12.0298C11.2527 11.8286 11.6587 11.728 12.164 11.728C12.4322 11.728 12.6849 11.758 12.9219 11.8178C13.1021 11.8615 13.2871 11.9211 13.4769 11.9966C13.5784 12.0369 13.6241 12.1536 13.5814 12.2541L13.354 12.7897C13.3101 12.8931 13.1899 12.9395 13.0855 12.8984C12.9459 12.8434 12.8052 12.797 12.6633 12.759C12.4573 12.7039 12.2933 12.6764 12.1712 12.6764C12.061 12.6764 11.976 12.6908 11.9161 12.7195C11.8562 12.7482 11.8263 12.7901 11.8263 12.8452C11.8263 12.8955 11.8467 12.9398 11.8874 12.9781C11.9305 13.0165 12.0107 13.0608 12.1281 13.1111C12.2454 13.1613 12.4166 13.232 12.6417 13.323C12.8788 13.4188 13.074 13.5218 13.2273 13.6319C13.383 13.7397 13.4979 13.8714 13.5721 14.0271C13.6488 14.1828 13.6871 14.3803 13.6871 14.6198Z"/>
<path class="letter" d="M15.6749 15.8699C15.5919 15.8699 15.5176 15.8187 15.488 15.7412L14.0887 12.0711C14.0388 11.9402 14.1355 11.7999 14.2756 11.7999H15.3002C15.3894 11.7999 15.4679 11.859 15.4924 11.9448L16.1406 14.2067C16.1478 14.2283 16.1598 14.2833 16.1766 14.3719C16.1947 14.4557 16.2042 14.5342 16.2052 14.6072C16.2053 14.6142 16.2109 14.6198 16.2179 14.6198C16.2248 14.6198 16.2304 14.6142 16.2305 14.6072C16.2313 14.5304 16.2397 14.4567 16.2556 14.3863C16.2723 14.3121 16.2855 14.2546 16.2951 14.2139L16.9745 11.9426C16.9998 11.8579 17.0777 11.7999 17.1661 11.7999H18.1889C18.329 11.7999 18.4257 11.9402 18.3758 12.0711L16.9764 15.7412C16.9469 15.8187 16.8725 15.8699 16.7896 15.8699H15.6749Z"/>
</svg>
