<svg width="22" height="22" viewBox="0 0 22 22" fill="none" xmlns="http://www.w3.org/2000/svg">
<path opacity="0.32" fill-rule="evenodd" clip-rule="evenodd" d="M19.1688 7.54153C17.849 7.8735 16.2908 7.89555 14.9449 7.48438C14.3759 7.31053 13.9322 6.86728 13.7402 6.30417C13.2618 4.90137 13.1436 3.18432 13.4952 1.86265C12.7672 1.84436 11.9394 1.8335 11 1.8335C7.8061 1.8335 5.90283 1.95892 4.82428 2.0753C4.02523 2.16153 3.4091 2.70274 3.25949 3.49236C3.0266 4.7215 2.75 7.01931 2.75 11.0002C2.75 14.981 3.0266 17.2788 3.25949 18.508C3.4091 19.2976 4.02523 19.8388 4.82428 19.925C5.90283 20.0414 7.8061 20.1668 11 20.1668C14.1939 20.1668 16.0972 20.0414 17.1757 19.925C17.9748 19.8388 18.5909 19.2976 18.7405 18.508C18.9734 17.2788 19.25 14.981 19.25 11.0002C19.25 9.66595 19.2189 8.52076 19.1688 7.54153Z" fill="#637381"/>
<path d="M19.1691 7.54125C17.8494 7.87322 16.2911 7.89526 14.9452 7.48409C14.3762 7.31025 13.9325 6.86699 13.7405 6.30388C13.2621 4.90106 13.1439 3.18398 13.4955 1.8623C13.4955 1.8623 14.6176 2.29149 16.6801 4.35399C18.7426 6.4165 19.1691 7.54125 19.1691 7.54125Z" fill="#637381"/>
</svg>
