<svg width="165" height="40" viewBox="0 0 165 40" fill="none" xmlns="http://www.w3.org/2000/svg">
<g clip-path="url(#clip0_1302_17091)">
<path fill-rule="evenodd" clip-rule="evenodd" d="M147.595 38.4308C147.654 39.296 148.352 39.9998 149.22 39.9998H150.063C150.703 39.9998 151.317 39.7456 151.769 39.2932L164.188 26.8737C164.995 26.0672 164.995 24.7597 164.188 23.9532C163.382 23.1467 162.074 23.1467 161.268 23.9532L148.058 37.1632C147.725 37.4961 147.562 37.9611 147.595 38.4308Z" fill="#FFE100"/>
<path fill-rule="evenodd" clip-rule="evenodd" d="M161.875 40C162.421 40 162.945 39.783 163.331 39.3969L164.172 38.5562C164.971 37.7569 164.977 36.4626 164.184 35.6565C163.382 34.8407 162.069 34.8352 161.26 35.6442L160.419 36.4848C159.122 37.782 160.041 40 161.875 40Z" fill="#FFE100"/>
<path fill-rule="evenodd" clip-rule="evenodd" d="M143.154 36.2993C143.557 38.3159 141.852 39.9998 139.795 39.9998H128.5C126.444 39.9998 124.776 38.3326 124.776 36.2759V24.9812C124.776 22.9246 126.46 21.2187 128.477 21.6226C135.859 23.101 141.675 28.9167 143.154 36.2993Z" fill="#FFE100"/>
<path fill-rule="evenodd" clip-rule="evenodd" d="M125.378 1.4639C124.993 1.84896 124.776 2.37122 124.776 2.91579C124.776 4.74503 126.988 5.66112 128.281 4.36765L129.132 3.51714C129.934 2.7153 129.934 1.41527 129.132 0.613431C128.33 -0.188394 127.03 -0.188407 126.228 0.613402L125.378 1.4639Z" fill="#FFE100"/>
<path fill-rule="evenodd" clip-rule="evenodd" d="M140.806 3.52547C141.613 2.71897 141.613 1.41137 140.806 0.604877C140 -0.201621 138.692 -0.201626 137.886 0.604865L125.483 13.0072C125.031 13.4597 124.776 14.0734 124.776 14.7134V15.5565C124.776 16.4237 125.48 17.1217 126.345 17.1816C126.815 17.2141 127.281 17.0514 127.614 16.7182L140.806 3.52547Z" fill="#FFE100"/>
<path fill-rule="evenodd" clip-rule="evenodd" d="M134.709 19.3918C135.46 19.7536 136.375 19.6398 136.964 19.0503L152.489 3.52553C153.295 2.719 153.295 1.41136 152.489 0.604856C151.682 -0.201628 150.375 -0.201617 149.568 0.60488L134.051 16.1222C133.069 17.1036 133.458 18.7893 134.709 19.3918Z" fill="#FFE100"/>
<path fill-rule="evenodd" clip-rule="evenodd" d="M140.954 23.8224C141.74 24.6081 143.023 24.6748 143.808 23.8892L164.153 3.5439C164.96 2.7374 164.96 1.42981 164.153 0.623316C163.347 -0.183182 162.039 -0.183182 161.233 0.623317L140.888 20.9684C140.102 21.7541 140.168 23.0368 140.954 23.8224Z" fill="#FFE100"/>
<path fill-rule="evenodd" clip-rule="evenodd" d="M145.385 30.0671C145.987 31.3175 147.673 31.7068 148.654 30.7254L164.18 15.1995C164.983 14.3963 164.987 13.0952 164.188 12.2874C163.383 11.4728 162.069 11.469 161.259 12.2789L145.726 27.812C145.137 28.4015 145.023 29.316 145.385 30.0671Z" fill="#FFE100"/>
<path fill-rule="evenodd" clip-rule="evenodd" d="M0 3.39991C0 2.4602 0.761786 1.69841 1.7015 1.69841H11.2584C12.1981 1.69841 12.9599 2.4602 12.9599 3.39991V4.33901C12.9599 5.27872 12.1981 6.04051 11.2584 6.04051H7.02993C6.09022 6.04051 5.32844 6.8023 5.32844 7.74201V9.17409C5.32844 10.1138 6.09022 10.8756 7.02993 10.8756H10.37C11.3097 10.8756 12.0715 11.6374 12.0715 12.5771V13.2199C12.0715 14.1596 11.3097 14.9214 10.37 14.9214H7.02993C6.09022 14.9214 5.32844 15.6832 5.32844 16.6229V21.9037C5.32844 22.8434 4.56665 23.6052 3.62694 23.6052H1.7015C0.761787 23.6052 0 22.8434 0 21.9037V3.39991Z" fill="#E73C3E"/>
<path fill-rule="evenodd" clip-rule="evenodd" d="M15.1706 16.336V8.00516C15.1706 7.06545 15.9324 6.30366 16.8721 6.30366H18.4691C19.4088 6.30366 20.1706 7.06545 20.1706 8.00516V15.9742C20.1706 18.836 20.9929 19.9211 23.4926 19.9211C25.795 19.9211 26.6173 18.7043 26.6173 16.1056V8.00516C26.6173 7.06545 27.3791 6.30366 28.3188 6.30366H29.521C30.4607 6.30366 31.2225 7.06545 31.2225 8.00516V15.8098C31.2225 21.0726 28.4922 23.9014 23.3939 23.9014C17.9337 23.9014 15.1706 21.4015 15.1706 16.336Z" fill="#E73C3E"/>
<path fill-rule="evenodd" clip-rule="evenodd" d="M34.9209 8.00516C34.9209 7.06545 35.6827 6.30366 36.6224 6.30366H36.907C37.3995 6.30366 37.8647 6.51338 38.1878 6.8851C39.9534 8.91635 45.7583 15.5968 46.1132 16.0309C46.1246 16.0449 46.1449 16.053 46.163 16.053C46.1812 16.053 46.1955 16.0386 46.1942 16.0205C46.179 15.8078 46.0643 14.7663 46.0643 13.507V8.00516C46.0643 7.06544 46.8261 6.30366 47.7658 6.30366H48.8034C49.7431 6.30366 50.5049 7.06545 50.5049 8.00516V22.0442C50.5049 22.9064 49.8059 23.6054 48.9437 23.6054C48.4942 23.6054 48.0711 23.4169 47.7747 23.079C45.987 21.0411 39.6067 13.7663 39.337 13.4391C39.3278 13.428 39.3199 13.4284 39.3055 13.4284C39.2818 13.4284 39.264 13.4471 39.2662 13.4706C39.2839 13.6587 39.3612 14.4507 39.3612 15.6452V21.9039C39.3612 22.8436 38.5994 23.6054 37.6597 23.6054H36.6224C35.6827 23.6054 34.9209 22.8436 34.9209 21.9039V8.00516Z" fill="#E73C3E"/>
<path fill-rule="evenodd" clip-rule="evenodd" d="M102.215 8.00516C102.215 7.06545 102.976 6.30366 103.916 6.30366H104.201C104.693 6.30366 105.158 6.51338 105.481 6.8851C107.247 8.91616 113.051 15.5955 113.407 16.0307C113.418 16.0448 113.438 16.053 113.457 16.053C113.475 16.053 113.489 16.0385 113.488 16.0204C113.473 15.8075 113.358 14.7662 113.358 13.507V8.00516C113.358 7.06544 114.12 6.30366 115.059 6.30366H116.097C117.037 6.30366 117.799 7.06545 117.799 8.00516V22.0442C117.799 22.9064 117.1 23.6054 116.237 23.6054C115.788 23.6054 115.365 23.4169 115.068 23.079C113.281 21.0412 106.9 13.7667 106.631 13.4391C106.621 13.428 106.614 13.4284 106.599 13.4284C106.575 13.4284 106.558 13.447 106.56 13.4706C106.578 13.6586 106.655 14.4507 106.655 15.6452V21.9039C106.655 22.8436 105.893 23.6054 104.953 23.6054H103.916C102.976 23.6054 102.215 22.8436 102.215 21.9039V8.00516Z" fill="#E73C3E"/>
<path fill-rule="evenodd" clip-rule="evenodd" d="M66.8922 23.0915C65.5794 22.5468 65.2877 20.9527 66.0092 19.7283C66.5053 18.8865 67.5883 18.6736 68.4783 19.0767C69.2718 19.4361 70.311 19.757 71.5274 19.757C73.5996 19.757 74.6856 18.8359 74.6856 17.5859C74.6856 15.8752 72.4154 15.5136 69.8499 14.1981C67.1527 12.8822 65.2779 11.1386 65.2779 7.55357C65.2779 3.73767 68.4686 1.30371 72.5798 1.30371C75.0713 1.30371 76.7656 1.83024 77.9066 2.39501C78.6778 2.77676 78.8742 3.74287 78.4522 4.49286L77.9825 5.32779C77.5105 6.1667 76.4372 6.43712 75.5397 6.08937C74.771 5.79154 73.8564 5.5471 72.942 5.5471C71.2645 5.5471 70.3106 6.20504 70.3106 7.52054C70.3106 9.06667 72.021 9.49435 74.3564 10.5468C77.2509 11.8294 79.7837 13.3097 79.7837 17.2898C79.7837 21.4341 76.7575 24 71.692 24C69.6992 24 68.0956 23.5909 66.8922 23.0915Z" fill="#E73C3E"/>
<path fill-rule="evenodd" clip-rule="evenodd" d="M82.4643 16.336V8.00516C82.4643 7.06545 83.2261 6.30366 84.1658 6.30366H85.7629C86.7026 6.30366 87.4644 7.06545 87.4644 8.00516V15.9742C87.4644 18.836 88.2867 19.9211 90.7867 19.9211C93.0891 19.9211 93.9111 18.7043 93.9111 16.1056V8.00516C93.9111 7.06545 94.6728 6.30366 95.6126 6.30366H96.8151C97.7549 6.30366 98.5166 7.06545 98.5166 8.00516V15.8098C98.5166 21.0726 95.7864 23.9014 90.6876 23.9014C85.2278 23.9014 82.4643 21.4015 82.4643 16.336Z" fill="#E73C3E"/>
<path fill-rule="evenodd" clip-rule="evenodd" d="M58.3015 12.2407C58.782 11.8705 59.0701 11.5546 59.0701 11.0463C59.0701 10.4426 58.5624 10.0725 57.9447 10.0725C57.3273 10.0725 56.8881 10.4155 56.8881 11.0603C56.8881 11.6097 57.2586 12.0077 57.588 12.3229L57.8488 12.5704L58.3015 12.2407ZM59.88 16.6466L57.5055 14.1899L57.1076 14.4505C56.5176 14.8486 56.2293 15.3429 56.2293 15.9606C56.2293 16.9484 56.9569 17.4699 57.9998 17.4699C58.7409 17.4699 59.3724 17.1954 59.88 16.6466ZM62.8175 13.929C62.6666 14.9169 62.3232 15.8643 61.7881 16.6327L63.0068 17.8752L62.0498 18.8473L60.8503 17.628L60.6761 17.7858C59.894 18.4446 58.9467 18.8015 57.9446 18.8015C56.0367 18.8015 54.692 17.8269 54.692 16.0018C54.692 14.6563 55.5564 13.8879 56.3801 13.3525L56.5614 13.2373L56.3801 13.0236C55.7901 12.3227 55.4606 11.8563 55.4606 11.033C55.4606 9.75646 56.4213 8.82309 57.9035 8.82309C59.3723 8.82309 60.4976 9.64637 60.4976 11.0051C60.4976 12.0621 59.7702 12.6796 58.6721 13.4488L60.7583 15.6037C61.0466 15.1234 61.225 14.5188 61.3213 13.929H62.8175Z" fill="#E73C3E"/>
<path d="M0 31.7701C0 30.4446 1.07452 29.3701 2.4 29.3701H115.2C116.525 29.3701 117.6 30.4446 117.6 31.7701V37.6001C117.6 38.9256 116.525 40.0001 115.2 40.0001H2.4C1.07452 40.0001 0 38.9256 0 37.6001V31.7701Z" fill="#E73C3E"/>
<path d="M8.25251 38.1254C7.89484 38.1254 7.58063 37.888 7.48294 37.5439L6.25117 33.206C6.2484 33.1962 6.23948 33.1895 6.22933 33.1895C6.21591 33.1895 6.20543 33.201 6.20667 33.2144C6.21838 33.3398 6.23009 33.5049 6.2418 33.7098C6.25742 33.9285 6.27148 34.1645 6.28398 34.4176C6.29648 34.6707 6.30273 34.9145 6.30273 35.1488V37.3254C6.30273 37.7672 5.94456 38.1254 5.50273 38.1254H5.46211C5.02028 38.1254 4.66211 37.7672 4.66211 37.3254V32.0723C4.66211 31.6304 5.02028 31.2723 5.46211 31.2723H6.52898C6.88394 31.2723 7.19646 31.5062 7.29653 31.8467L8.55215 36.12C8.55528 36.1306 8.56503 36.1379 8.57612 36.1379C8.58725 36.1379 8.59704 36.1305 8.60013 36.1198L9.82983 31.8508C9.92852 31.5082 10.242 31.2723 10.5986 31.2723H11.6668C12.1086 31.2723 12.4668 31.6304 12.4668 32.0723V37.3254C12.4668 37.7672 12.1086 38.1254 11.6668 38.1254H11.5652C11.1234 38.1254 10.7652 37.7672 10.7652 37.3254V35.1207C10.7652 34.9051 10.7684 34.6738 10.7746 34.427C10.784 34.177 10.7934 33.9426 10.8027 33.7238C10.8144 33.5159 10.8248 33.3491 10.8338 33.2235C10.8347 33.2102 10.8242 33.1988 10.8108 33.1988C10.8005 33.1988 10.7914 33.2057 10.7886 33.2156L9.57441 37.5416C9.47751 37.8868 9.16274 38.1254 8.80418 38.1254H8.25251Z" fill="white"/>
<path d="M24.4121 37.3707C24.4121 37.7875 24.0742 38.1254 23.6574 38.1254H21.1434C20.7015 38.1254 20.3434 37.7672 20.3434 37.3254V32.0723C20.3434 31.6304 20.7015 31.2723 21.1434 31.2723H23.6691C24.0795 31.2723 24.4121 31.6049 24.4121 32.0152C24.4121 32.4256 24.0795 32.7582 23.6691 32.7582H22.734C22.4363 32.7582 22.1949 32.9995 22.1949 33.2973C22.1949 33.595 22.4363 33.8363 22.734 33.8363H23.5051C23.9154 33.8363 24.248 34.169 24.248 34.5793C24.248 34.9896 23.9154 35.3223 23.5051 35.3223H22.8418C22.4845 35.3223 22.1949 35.6119 22.1949 35.9691C22.1949 36.3264 22.4845 36.616 22.8418 36.616H23.6574C24.0742 36.616 24.4121 36.9539 24.4121 37.3707Z" fill="white"/>
<path d="M37.8293 34.5535C37.8293 35.3504 37.6809 36.0129 37.384 36.541C37.0871 37.0691 36.6684 37.466 36.1277 37.7316C35.5902 37.9941 34.9574 38.1254 34.2293 38.1254H32.8121C32.3703 38.1254 32.0121 37.7672 32.0121 37.3254V32.0723C32.0121 31.6304 32.3703 31.2723 32.8121 31.2723H34.384C35.1215 31.2723 35.7465 31.3988 36.259 31.652C36.7715 31.9051 37.1605 32.2754 37.4262 32.7629C37.6949 33.2504 37.8293 33.8473 37.8293 34.5535ZM35.9074 34.6191C35.9074 34.2035 35.8512 33.8598 35.7387 33.5879C35.6293 33.3129 35.4637 33.1082 35.2418 32.9738C35.0199 32.8363 34.7402 32.7676 34.4027 32.7676C34.105 32.7676 33.8637 33.0089 33.8637 33.3066V36.1941C33.8637 36.422 34.0484 36.6066 34.2762 36.6066C34.8387 36.6066 35.2512 36.4441 35.5137 36.1191C35.7762 35.791 35.9074 35.291 35.9074 34.6191Z" fill="white"/>
<path d="M46.2621 38.1254C45.8203 38.1254 45.4621 37.7672 45.4621 37.3254V32.0723C45.4621 31.6304 45.8203 31.2723 46.2621 31.2723H46.523C46.9649 31.2723 47.323 31.6304 47.323 32.0723V37.3254C47.323 37.7672 46.9649 38.1254 46.523 38.1254H46.2621Z" fill="white"/>
<path d="M60.0306 38.1254C59.6671 38.1254 59.3493 37.8803 59.2569 37.5287L59.233 37.4377C59.1406 37.0861 58.8228 36.841 58.4592 36.841H57.4622C57.1007 36.841 56.7841 37.0834 56.6899 37.4324L56.6625 37.534C56.5682 37.883 56.2516 38.1254 55.8901 38.1254H55.5695C55.026 38.1254 54.6407 37.5951 54.8086 37.0782L56.5247 31.7969C56.6318 31.4673 56.9389 31.2441 57.2855 31.2441H58.5956C58.9411 31.2441 59.2476 31.4659 59.3556 31.7941L61.0932 37.0754C61.2634 37.5928 60.878 38.1254 60.3333 38.1254H60.0306ZM57.9629 35.3223C58.3314 35.3223 58.6003 34.9737 58.5067 34.6172L58.3965 34.1973C58.3652 34.0754 58.3199 33.902 58.2605 33.677C58.2012 33.4488 58.1418 33.2145 58.0824 32.9738C58.0809 32.9672 58.0794 32.9606 58.0779 32.9541C58.0499 32.8327 57.8572 32.8337 57.8293 32.9551C57.7793 33.1832 57.7262 33.4098 57.6699 33.6348C57.6168 33.8598 57.5699 34.0473 57.5293 34.1973L57.419 34.6172C57.3255 34.9737 57.5944 35.3223 57.9629 35.3223Z" fill="white"/>
<path d="M70.9559 31.2723C71.8246 31.2723 72.4746 31.4613 72.9059 31.8395C73.3402 32.2176 73.5574 32.7551 73.5574 33.452C73.5574 33.7645 73.5121 34.0645 73.4215 34.352C73.334 34.6395 73.1887 34.8957 72.9855 35.1207C72.7855 35.3457 72.5184 35.5238 72.184 35.6551C71.8527 35.7863 71.4434 35.852 70.9559 35.852C70.6685 35.852 70.4355 36.0849 70.4355 36.3723V37.3254C70.4355 37.7672 70.0774 38.1254 69.6355 38.1254H69.384C68.9422 38.1254 68.584 37.7672 68.584 37.3254V32.0723C68.584 31.6304 68.9422 31.2723 69.384 31.2723H70.9559ZM70.9137 32.7676C70.6496 32.7676 70.4355 32.9816 70.4355 33.2457V33.977C70.4355 34.1789 70.5992 34.3426 70.8012 34.3426C70.9605 34.3426 71.109 34.316 71.2465 34.2629C71.384 34.2066 71.4934 34.1176 71.5746 33.9957C71.659 33.8707 71.7012 33.7051 71.7012 33.4988C71.7012 33.2832 71.6371 33.1082 71.509 32.9738C71.3809 32.8363 71.1824 32.7676 70.9137 32.7676Z" fill="white"/>
<path d="M81.8496 38.1254C81.4078 38.1254 81.0496 37.7672 81.0496 37.3254V32.0723C81.0496 31.6304 81.4078 31.2723 81.8496 31.2723H82.1012C82.543 31.2723 82.9012 31.6304 82.9012 32.0723V35.8301C82.9012 36.2719 83.2593 36.6301 83.7012 36.6301H84.7926C85.2055 36.6301 85.5402 36.9648 85.5402 37.3777C85.5402 37.7907 85.2055 38.1254 84.7926 38.1254H81.8496Z" fill="white"/>
<path d="M97.8587 38.1254C97.4952 38.1254 97.1774 37.8803 97.085 37.5287L97.0611 37.4377C96.9687 37.0861 96.6509 36.841 96.2874 36.841H95.2903C94.9288 36.841 94.6123 37.0834 94.518 37.4324L94.4906 37.534C94.3963 37.883 94.0797 38.1254 93.7182 38.1254H93.3976C92.8541 38.1254 92.4688 37.5951 92.6368 37.0782L94.3528 31.7969C94.4599 31.4673 94.7671 31.2441 95.1136 31.2441H96.4238C96.7692 31.2441 97.0757 31.4659 97.1837 31.7941L98.9213 37.0754C99.0916 37.5928 98.7061 38.1254 98.1614 38.1254H97.8587ZM95.791 35.3223C96.1595 35.3223 96.4284 34.9737 96.3348 34.6172L96.2246 34.1973C96.1934 34.0754 96.148 33.902 96.0887 33.677C96.0293 33.4488 95.9699 33.2145 95.9105 32.9738C95.909 32.9672 95.9075 32.9606 95.906 32.9541C95.878 32.8327 95.6853 32.8337 95.6574 32.9551C95.6074 33.1832 95.5543 33.4098 95.498 33.6348C95.4449 33.8598 95.398 34.0473 95.3574 34.1973L95.2472 34.6172C95.1536 34.9737 95.4225 35.3223 95.791 35.3223Z" fill="white"/>
<path d="M112.937 37.3254C112.937 37.7672 112.579 38.1254 112.137 38.1254H110.995C110.697 38.1254 110.423 37.9589 110.285 37.6936L108.013 33.3105C108.008 33.3024 108 33.2973 107.991 33.2973C107.976 33.2973 107.965 33.3099 107.966 33.3244C107.981 33.4657 107.994 33.6332 108.006 33.827C108.018 34.0332 108.029 34.2441 108.039 34.4598C108.048 34.6723 108.053 34.8645 108.053 35.0363V37.3254C108.053 37.7672 107.695 38.1254 107.253 38.1254H107.212C106.77 38.1254 106.412 37.7672 106.412 37.3254V32.0723C106.412 31.6304 106.77 31.2723 107.212 31.2723H108.347C108.644 31.2723 108.917 31.4375 109.055 31.7012L111.32 36.0257C111.323 36.0313 111.329 36.0348 111.335 36.0348C111.345 36.0348 111.352 36.0266 111.352 36.0169C111.343 35.871 111.334 35.7036 111.325 35.5145C111.315 35.3145 111.306 35.1129 111.296 34.9098C111.29 34.7066 111.287 34.527 111.287 34.3707V32.0723C111.287 31.6304 111.645 31.2723 112.087 31.2723H112.137C112.579 31.2723 112.937 31.6304 112.937 32.0723V37.3254Z" fill="white"/>
</g>
<defs>
<clipPath id="clip0_1302_17091">
<rect width="164.8" height="40" fill="white"/>
</clipPath>
</defs>
</svg>
