<svg width="22" height="22" viewBox="0 0 22 22" fill="none" xmlns="http://www.w3.org/2000/svg">
<path opacity="0.32" d="M2.09058 18.0195C2.17186 18.8066 2.6879 19.4296 3.46181 19.5944C4.68338 19.8544 6.98614 20.1668 10.9997 20.1668C15.0132 20.1668 17.316 19.8544 18.5376 19.5944C19.3115 19.4296 19.8275 18.8066 19.9088 18.0195C20.0293 16.8525 20.1663 14.7099 20.1663 11.0002C20.1663 7.29046 20.0293 5.1478 19.9088 3.9808C19.8275 3.19372 19.3115 2.57072 18.5375 2.40596C17.316 2.14591 15.0132 1.8335 10.9997 1.8335C6.98614 1.8335 4.68338 2.14591 3.46181 2.40596C2.6879 2.57072 2.17186 3.19372 2.09058 3.9808C1.97007 5.1478 1.83301 7.29046 1.83301 11.0002C1.83301 14.7099 1.97007 16.8525 2.09058 18.0195Z" fill="#637381"/>
<path d="M12.7763 12.7012C13.9907 12.0617 14.8187 10.7873 14.8187 9.31943C14.8187 7.21004 13.1087 5.5 10.9993 5.5C8.88988 5.5 7.17984 7.21004 7.17984 9.31943C7.17984 10.7873 8.00791 12.0619 9.2224 12.7013C7.59601 13.321 6.35415 14.7668 5.96947 16.5485C5.91626 16.7951 6.05193 17.0482 6.3003 17.0932C7.19167 17.2545 8.66782 17.4167 11.0002 17.4167C13.3326 17.4167 14.8088 17.2545 15.7001 17.0932C15.9476 17.0484 16.0829 16.7962 16.0299 16.5505C15.6458 14.7678 14.4035 13.321 12.7763 12.7012Z" fill="#637381"/>
</svg>
