<svg width="22" height="22" viewBox="0 0 22 22" fill="none" xmlns="http://www.w3.org/2000/svg">
<path d="M13.4015 1.77489C11.909 0.936367 10.091 0.936366 8.5985 1.77488L3.06493 4.88382C1.72836 5.63474 1.72835 7.56658 3.06493 8.31752L8.5985 11.4264C10.091 12.265 11.909 12.265 13.4015 11.4264L18.9351 8.31752C20.2716 7.56659 20.2717 5.63475 18.9351 4.88382L13.4015 1.77489Z" fill="#637381"/>
<path opacity="0.3" d="M2.72724 14.0586C1.73988 14.9203 1.85244 16.5733 3.06493 17.2545L8.5985 20.3634C10.091 21.202 11.909 21.202 13.4015 20.3634L18.9351 17.2545C20.1476 16.5733 20.2601 14.9203 19.2728 14.0586L14.075 16.9789C12.1643 18.0524 9.83572 18.0524 7.925 16.9789L2.72724 14.0586Z" fill="#637381"/>
<path opacity="0.3" d="M2.72724 9.625C1.73988 10.4867 1.85244 12.1397 3.06493 12.8209L8.5985 15.9298C10.091 16.7684 11.909 16.7684 13.4015 15.9298L18.9351 12.8209C20.1476 12.1397 20.2601 10.4867 19.2728 9.625L14.075 12.5453C12.1643 13.6188 9.83572 13.6188 7.925 12.5453L2.72724 9.625Z" fill="#637381"/>
</svg>
