<svg width="22" height="22" viewBox="0 0 22 22" fill="none" xmlns="http://www.w3.org/2000/svg">
<path opacity="0.32" fill-rule="evenodd" clip-rule="evenodd" d="M19.1688 7.54138C17.849 7.87335 16.2908 7.8954 14.9449 7.48423C14.3759 7.31038 13.9322 6.86712 13.7402 6.30402C13.2618 4.90122 13.1436 3.18416 13.4952 1.86249C12.7672 1.84421 11.9394 1.83334 11 1.83334C7.8061 1.83334 5.90283 1.95877 4.82428 2.07515C4.02523 2.16137 3.4091 2.70259 3.25949 3.49221C3.0266 4.72135 2.75 7.01916 2.75 11C2.75 14.9809 3.0266 17.2787 3.25949 18.5078C3.4091 19.2974 4.02523 19.8386 4.82428 19.9249C5.90283 20.0412 7.8061 20.1667 11 20.1667C14.1939 20.1667 16.0972 20.0412 17.1757 19.9249C17.9748 19.8386 18.5909 19.2974 18.7405 18.5078C18.9734 17.2787 19.25 14.9809 19.25 11C19.25 9.6658 19.2189 8.52061 19.1688 7.54138ZM7.33333 11.9167C6.82706 11.9167 6.41667 11.5063 6.41667 11C6.41667 10.4937 6.82706 10.0833 7.33333 10.0833H11C11.5063 10.0833 11.9167 10.4937 11.9167 11C11.9167 11.5063 11.5063 11.9167 11 11.9167H7.33333ZM7.33333 16.0417C6.82706 16.0417 6.41667 15.6313 6.41667 15.125C6.41667 14.6187 6.82706 14.2083 7.33333 14.2083H13.75C14.2563 14.2083 14.6667 14.6187 14.6667 15.125C14.6667 15.6313 14.2563 16.0417 13.75 16.0417H7.33333Z" fill="#637381"/>
<path d="M6.41699 15.125C6.41699 15.6313 6.82738 16.0417 7.33366 16.0417H13.7503C14.2566 16.0417 14.667 15.6313 14.667 15.125C14.667 14.6187 14.2566 14.2083 13.7503 14.2083H7.33366C6.82738 14.2083 6.41699 14.6187 6.41699 15.125Z" fill="#637381"/>
<path d="M6.41699 11C6.41699 11.5063 6.82738 11.9167 7.33366 11.9167H11.0003C11.5066 11.9167 11.917 11.5063 11.917 11C11.917 10.4937 11.5066 10.0833 11.0003 10.0833H7.33366C6.82738 10.0833 6.41699 10.4937 6.41699 11Z" fill="#637381"/>
<path d="M19.1692 7.54137C17.8494 7.87334 16.2911 7.89539 14.9452 7.48421C14.3762 7.31037 13.9326 6.86711 13.7405 6.30401C13.2621 4.90119 13.1439 3.1841 13.4955 1.86243C13.4955 1.86243 14.6176 2.29161 16.6801 4.35411C18.7426 6.41662 19.1692 7.54137 19.1692 7.54137Z" fill="#637381"/>
</svg>
