<svg width="22" height="22" viewBox="0 0 22 22" fill="none" xmlns="http://www.w3.org/2000/svg">
<path opacity="0.32" d="M19.4155 15.5561C19.1553 16.1567 18.537 16.5 17.8826 16.5H13.5805C13.6087 16.4216 13.6337 16.3413 13.6553 16.2592C13.9063 15.306 13.6419 14.3358 13.0359 13.655C13.2596 11.8334 13.3992 9.96716 13.4845 8.49306C13.5268 7.7617 12.6308 7.51741 12.3081 8.17232C11.6577 9.49232 10.8615 11.1795 10.1601 12.8709C9.30082 13.1522 8.59508 13.8579 8.34405 14.8111C8.19139 15.3908 8.22935 15.9767 8.41881 16.5H4.1168C3.46236 16.5 2.84398 16.1567 2.58392 15.5561C2.10078 14.4405 1.83301 13.2099 1.83301 11.9167C1.83301 6.85405 5.93706 2.75 10.9997 2.75C16.0623 2.75 20.1663 6.85405 20.1663 11.9167C20.1663 13.2099 19.8986 14.4405 19.4155 15.5561Z" fill="#637381"/>
<path d="M13.4849 8.4929C13.5272 7.76154 12.6312 7.51725 12.3085 8.17216C11.658 9.49216 10.8619 11.1793 10.1605 12.8708C9.30114 13.152 8.5954 13.8577 8.34437 14.8109C7.95135 16.3033 8.82177 17.8373 10.2884 18.2372C11.7551 18.6371 13.2627 17.7514 13.6556 16.259C13.9067 15.3058 13.6422 14.3356 13.0362 13.6548C13.26 11.8332 13.3996 9.96699 13.4849 8.4929Z" fill="#637381"/>
</svg>
