<svg width="29" height="28" viewBox="0 0 29 28" fill="none" xmlns="http://www.w3.org/2000/svg">
<path d="M13.2314 15.9741V15.3599C13.2314 14.9836 13.284 14.6515 13.3892 14.3638C13.4943 14.0705 13.6631 13.7938 13.8955 13.5337C14.1279 13.2681 14.4351 12.9969 14.8169 12.7202C15.16 12.4767 15.4339 12.2581 15.6387 12.0645C15.849 11.8708 16.0011 11.6799 16.0952 11.4917C16.1948 11.298 16.2446 11.0794 16.2446 10.8359C16.2446 10.4762 16.1118 10.2023 15.8462 10.0142C15.5806 9.82601 15.2098 9.73193 14.7339 9.73193C14.258 9.73193 13.7848 9.80664 13.3145 9.95605C12.8496 10.1055 12.3765 10.3019 11.895 10.5454L10.9902 8.72754C11.5436 8.41764 12.144 8.16862 12.7915 7.98047C13.439 7.78678 14.1473 7.68994 14.9165 7.68994C16.1007 7.68994 17.0166 7.97493 17.6641 8.54492C18.3171 9.10938 18.6436 9.82878 18.6436 10.7031C18.6436 11.168 18.5688 11.5719 18.4194 11.915C18.2756 12.2526 18.0542 12.568 17.7554 12.8613C17.4621 13.1491 17.0941 13.4535 16.6514 13.7744C16.3193 14.0179 16.0648 14.2227 15.8877 14.3887C15.7106 14.5547 15.5889 14.7207 15.5225 14.8867C15.4616 15.0472 15.4312 15.2437 15.4312 15.4761V15.9741H13.2314ZM12.9658 18.813C12.9658 18.2928 13.1069 17.9276 13.3892 17.7173C13.6769 17.507 14.0228 17.4019 14.4268 17.4019C14.8197 17.4019 15.1572 17.507 15.4395 17.7173C15.7272 17.9276 15.8711 18.2928 15.8711 18.813C15.8711 19.311 15.7272 19.6707 15.4395 19.8921C15.1572 20.1134 14.8197 20.2241 14.4268 20.2241C14.0228 20.2241 13.6769 20.1134 13.3892 19.8921C13.1069 19.6707 12.9658 19.311 12.9658 18.813Z" fill="#9FAFBD"/>
<rect x="1.2998" y="0.5" width="27" height="27" rx="13.5" stroke="#DCE0E4"/>
</svg>
