<svg viewBox="0 0 20 20" xmlns="http://www.w3.org/2000/svg">
<g id="trendingUp">
<path id="shape" d="M17.5 5.83333C17.5079 5.77527 17.5079 5.7164 17.5 5.65833C17.4928 5.60941 17.4787 5.56173 17.4583 5.51667C17.4363 5.47594 17.4112 5.43694 17.3833 5.4C17.3516 5.34729 17.3123 5.29956 17.2667 5.25833L17.1667 5.2C17.1186 5.16413 17.0651 5.13601 17.0083 5.11667H16.8417C16.7909 5.0675 16.7316 5.02796 16.6667 5H12.5C12.0398 5 11.6667 5.3731 11.6667 5.83333C11.6667 6.29357 12.0398 6.66667 12.5 6.66667H14.8583L11.525 10.5917L7.925 8.45C7.57274 8.24049 7.12043 8.31823 6.85834 8.63333L2.69167 13.6333C2.54996 13.8034 2.48173 14.0229 2.50206 14.2433C2.52238 14.4637 2.62958 14.667 2.8 14.8083C2.94993 14.9326 3.13863 15.0004 3.33334 15C3.5812 15.0004 3.81637 14.8905 3.975 14.7L7.68334 10.25L11.2417 12.3833C11.5901 12.59 12.0367 12.5161 12.3 12.2083L15.8333 8.08333V10C15.8333 10.4602 16.2064 10.8333 16.6667 10.8333C17.1269 10.8333 17.5 10.4602 17.5 10V5.83333Z"/>
</g>
</svg>
