<svg width="22" height="22" viewBox="0 0 22 22" fill="none" xmlns="http://www.w3.org/2000/svg">
<path fill-rule="evenodd" clip-rule="evenodd" d="M18.615 17.3428C18.6649 17.3495 18.7148 17.3563 18.7647 17.3633L19.0154 17.3984C20.107 17.5516 21.0836 16.7196 21.0836 15.6365V14.8099C21.0836 14.0352 20.5879 13.3442 19.8452 13.0837C18.9872 12.7827 18.1013 12.5867 17.2071 12.4957C18.1402 13.1703 18.7189 14.2627 18.7189 15.4545V16.4808C18.7189 16.7788 18.6828 17.0674 18.615 17.3428ZM14.833 11.396C15.2049 11.5496 15.6133 11.6344 16.042 11.6344C17.7665 11.6344 19.1645 10.2612 19.1645 8.5672C19.1645 6.87323 17.7665 5.5 16.042 5.5C15.9909 5.5 15.9401 5.50121 15.8896 5.50359C16.2032 6.17148 16.3785 6.91722 16.3785 7.7039C16.3785 9.14903 15.787 10.456 14.833 11.396Z" fill="#637381"/>
<path fill-rule="evenodd" clip-rule="evenodd" d="M3.73459 17.3428C3.68467 17.3495 3.63478 17.3563 3.5849 17.3633L3.33419 17.3984C2.2426 17.5516 1.26597 16.7196 1.26597 15.6365V14.8099C1.26597 14.0352 1.76173 13.3442 2.5044 13.0837C3.36246 12.7827 4.24829 12.5867 5.14252 12.4957C4.20945 13.1703 3.63073 14.2627 3.63073 15.4545V16.4808C3.63073 16.7788 3.6668 17.0674 3.73459 17.3428ZM7.5166 11.396C7.14476 11.5496 6.73628 11.6344 6.30764 11.6344C4.5831 11.6344 3.18509 10.2612 3.18509 8.5672C3.18509 6.87323 4.5831 5.5 6.30764 5.5C6.35873 5.5 6.40953 5.50121 6.46002 5.50359C6.14642 6.17148 5.97116 6.91722 5.97116 7.7039C5.97116 9.14903 6.56259 10.456 7.5166 11.396Z" fill="#637381"/>
<path opacity="0.3" fill-rule="evenodd" clip-rule="evenodd" d="M6.55719 13.3117C9.55653 12.2405 12.8342 12.2405 15.8335 13.3117C16.7393 13.6352 17.3439 14.4931 17.3439 15.4548V16.4811C17.3439 17.8259 16.1528 18.8588 14.8216 18.6687L14.5158 18.625C12.3134 18.3104 10.0774 18.3104 7.8749 18.625L7.56914 18.6687C6.23791 18.8588 5.04688 17.8259 5.04688 16.4811V15.4548C5.04688 14.4931 5.65147 13.6352 6.55719 13.3117Z" fill="#637381"/>
<path opacity="0.3" fill-rule="evenodd" clip-rule="evenodd" d="M15.0029 7.70406C15.0029 5.60093 13.2979 3.896 11.1948 3.896C9.09165 3.896 7.38672 5.60093 7.38672 7.70406C7.38672 9.8072 9.09165 11.5121 11.1948 11.5121C13.2979 11.5121 15.0029 9.8072 15.0029 7.70406Z" fill="#637381"/>
</svg>
