<svg viewBox="0 0 25 24" xmlns="http://www.w3.org/2000/svg">
<path class="file" fill-rule="evenodd" clip-rule="evenodd" d="M6.64461 0H14.6767L21.4738 7.09489V20.873C21.4738 22.5985 20.0811 24 18.3556 24H6.64461C4.92782 24 3.52637 22.5985 3.52637 20.873V3.11824C3.52634 1.40145 4.92782 0 6.64461 0Z"/>
<path class="background" opacity="0.4" fill-rule="evenodd" clip-rule="evenodd" d="M14.668 0V7.03358H21.4738L14.668 0Z"/>
<path class="letter" d="M8.73825 15.697C8.83036 15.8296 8.73545 16.0111 8.57398 16.0111H7.70944C7.64042 16.0111 7.57627 15.9755 7.53974 15.9169L6.92221 14.9267C6.8437 14.8008 6.66023 14.8013 6.58231 14.9275L5.97228 15.9161C5.93585 15.9752 5.87144 16.0111 5.80207 16.0111H4.95349C4.7949 16.0111 4.6994 15.8354 4.78568 15.7023L5.95657 13.8965C5.99921 13.8307 5.9995 13.7461 5.95731 13.68L4.8681 11.9745C4.78308 11.8414 4.87869 11.6669 5.03666 11.6669H5.8583C5.92939 11.6669 5.99514 11.7046 6.031 11.766L6.5815 12.7086C6.65945 12.842 6.85285 12.8404 6.92856 12.7057L7.45496 11.7689C7.49038 11.7059 7.55704 11.6669 7.62932 11.6669H8.49263C8.64949 11.6669 8.7453 11.8392 8.6625 11.9725L7.54604 13.7689C7.50392 13.8367 7.50612 13.923 7.55164 13.9886L8.73825 15.697Z"/>
<path class="letter" d="M9.64669 16.0111C9.53623 16.0111 9.44669 15.9216 9.44669 15.8111V11.8669C9.44669 11.7564 9.53623 11.6669 9.64669 11.6669H10.4204C10.5309 11.6669 10.6204 11.7564 10.6204 11.8669V14.8632C10.6204 14.9737 10.7099 15.0632 10.8204 15.0632H12.0933C12.2038 15.0632 12.2933 15.1528 12.2933 15.2632V15.8111C12.2933 15.9216 12.2038 16.0111 12.0933 16.0111H9.64669Z"/>
<path class="letter" d="M15.8293 14.6918C15.8293 14.9275 15.7699 15.1514 15.651 15.3633C15.5321 15.5733 15.3469 15.7437 15.0953 15.8744C14.8458 16.0052 14.5229 16.0705 14.1267 16.0705C13.9286 16.0705 13.7542 16.0616 13.6037 16.0438C13.4551 16.026 13.3165 15.9972 13.1877 15.9576C13.0951 15.9277 12.9999 15.8916 12.9021 15.8494C12.8311 15.8187 12.7866 15.7478 12.7866 15.6703V15.076C12.7866 14.9271 12.9441 14.8296 13.0823 14.8854C13.2208 14.9412 13.3599 14.9876 13.4997 15.0246C13.7394 15.086 13.9563 15.1167 14.1504 15.1167C14.2673 15.1167 14.3624 15.1028 14.4357 15.0751C14.511 15.0474 14.5664 15.0097 14.6021 14.9622C14.6378 14.9127 14.6556 14.8562 14.6556 14.7928C14.6556 14.7175 14.6288 14.6542 14.5754 14.6027C14.5238 14.5492 14.4406 14.4937 14.3258 14.4363C14.2109 14.3788 14.0593 14.3075 13.8711 14.2223C13.7107 14.147 13.5651 14.0698 13.4343 13.9905C13.3056 13.9113 13.1946 13.8212 13.1015 13.7201C13.0104 13.6171 12.9401 13.4973 12.8906 13.3606C12.841 13.2239 12.8163 13.0625 12.8163 12.8763C12.8163 12.5969 12.8846 12.3632 13.0213 12.175C13.16 11.9848 13.3521 11.8422 13.5978 11.7471C13.8454 11.652 14.1306 11.6045 14.4535 11.6045C14.7368 11.6045 14.9914 11.6362 15.2172 11.6996C15.3737 11.7431 15.5189 11.7909 15.653 11.8428C15.7527 11.8815 15.7983 11.9947 15.7588 12.0941L15.5474 12.6271C15.5052 12.7335 15.3826 12.7823 15.2761 12.7402C15.1561 12.6928 15.0375 12.653 14.92 12.6207C14.7398 12.5692 14.5724 12.5435 14.4179 12.5435C14.3168 12.5435 14.2336 12.5563 14.1683 12.5821C14.1049 12.6059 14.0573 12.6385 14.0256 12.6801C13.9959 12.7217 13.9811 12.7693 13.9811 12.8228C13.9811 12.8901 14.0068 12.9505 14.0583 13.004C14.1118 13.0575 14.2 13.116 14.3228 13.1793C14.4476 13.2408 14.617 13.321 14.8309 13.42C15.0429 13.5151 15.2231 13.6181 15.3717 13.7291C15.5203 13.838 15.6332 13.9697 15.7104 14.1243C15.7897 14.2768 15.8293 14.466 15.8293 14.6918Z"/>
<path class="letter" d="M20.196 15.697C20.2881 15.8296 20.1932 16.0111 20.0318 16.0111H19.1672C19.0982 16.0111 19.034 15.9755 18.9975 15.9169L18.38 14.9267C18.3015 14.8008 18.118 14.8013 18.0401 14.9275L17.4301 15.9161C17.3936 15.9752 17.3292 16.0111 17.2599 16.0111H16.4113C16.2527 16.0111 16.1572 15.8354 16.2435 15.7023L17.4143 13.8965C17.457 13.8307 17.4573 13.7461 17.4151 13.68L16.3259 11.9745C16.2409 11.8414 16.3365 11.6669 16.4944 11.6669H17.3161C17.3872 11.6669 17.4529 11.7046 17.4888 11.766L18.0393 12.7086C18.1172 12.842 18.3106 12.8404 18.3863 12.7057L18.9127 11.7689C18.9482 11.7059 19.0148 11.6669 19.0871 11.6669H19.9504C20.1073 11.6669 20.2031 11.8392 20.1203 11.9725L19.0038 13.7689C18.9617 13.8367 18.9639 13.923 19.0094 13.9886L20.196 15.697Z"/>
</svg>
